<svg id="Layer_1" data-name="Layer 1" xmlns="http://www.w3.org/2000/svg" viewBox="0 0 1203 845"><defs><style>.cls-1{opacity:0.56;}.cls-2,.cls-3{fill:#005187;stroke:#e5e516;stroke-width:6px;}.cls-2,.cls-3,.cls-4,.cls-5,.cls-6,.cls-7,.cls-8,.cls-9{stroke-miterlimit:10;}.cls-3{stroke-linecap:round;}.cls-4{font-size:28.72px;}.cls-4,.cls-5,.cls-6,.cls-7{fill:#8cd6ed;}.cls-4,.cls-5,.cls-6,.cls-7,.cls-8{stroke:#b9e5fb;font-family:MyanmarText, Myanmar Text;}.cls-5{font-size:22.44px;}.cls-6{font-size:19.74px;}.cls-7{font-size:20.64px;}.cls-8{font-size:25.13px;fill:#89d1f4;}.cls-9{font-size:47.56px;fill:#bee3db;stroke:#f7931e;font-family:MVBoli, MV Boli;}</style></defs><title>Academic-journey</title><g class="cls-1"><line class="cls-2" x1="113.62" y1="698.07" x2="1113.57" y2="698.07"/><line class="cls-2" x1="113.62" y1="698.07" x2="113.62" y2="681.17"/><line class="cls-2" x1="313.61" y1="698.07" x2="313.61" y2="681.17"/><line class="cls-2" x1="513.6" y1="698.07" x2="513.6" y2="681.17"/><line class="cls-2" x1="713.59" y1="698.07" x2="713.59" y2="681.17"/><line class="cls-2" x1="913.58" y1="698.07" x2="913.58" y2="681.17"/><line class="cls-2" x1="1113.57" y1="698.07" x2="1113.57" y2="681.17"/><text></text><text></text><text></text><text></text><text></text><text></text><line class="cls-2" x1="113.62" y1="698.07" x2="113.62" y2="22.11"/><line class="cls-2" x1="113.62" y1="698.07" x2="138.61" y2="698.07"/><line class="cls-2" x1="113.62" y1="562.88" x2="138.61" y2="562.88"/><line class="cls-2" x1="113.62" y1="427.69" x2="138.61" y2="427.69"/><line class="cls-2" x1="113.62" y1="292.49" x2="138.61" y2="292.49"/><line class="cls-2" x1="113.62" y1="157.3" x2="138.61" y2="157.3"/><line class="cls-2" x1="113.62" y1="22.11" x2="138.61" y2="22.11"/><line class="cls-3" x1="413.6" y1="382.62" x2="213.61" y2="653.01"/><line class="cls-3" x1="613.59" y1="292.49" x2="413.6" y2="382.62"/><line class="cls-3" x1="813.58" y1="247.43" x2="613.59" y2="292.49"/><line class="cls-3" x1="1013.57" y1="67.17" x2="813.58" y2="247.43"/><rect class="cls-2" x="210.61" y="650.01" width="6" height="6"/><rect class="cls-2" x="410.6" y="379.62" width="6" height="6"/><rect class="cls-2" x="610.59" y="289.49" width="6" height="6"/><rect class="cls-2" x="810.58" y="244.43" width="6" height="6"/><rect class="cls-2" x="1010.57" y="64.17" width="6" height="6"/></g><text class="cls-4" transform="translate(77.72 424.36) rotate(-90)">Knowledge gain </text><text class="cls-5" transform="translate(164.1 628.96)">Genesis (1997)</text><text class="cls-5" transform="translate(339.9 347.02)">2010<tspan x="0" y="26.92">B.S.M.S </tspan><tspan x="0" y="53.85">Mumbai</tspan></text><text class="cls-6" transform="translate(512.63 247.09)">2013<tspan x="0" y="23.69">ICSE A.G. Church</tspan><tspan x="0" y="47.39">Kolkata</tspan></text><text class="cls-7" transform="translate(728.53 180.76)">2015<tspan x="0" y="24.77">ISC A.G. Church </tspan><tspan x="0" y="49.54">Kolkata</tspan></text><text class="cls-8" transform="translate(1012.82 40.17)">Present<tspan x="0" y="30.15">B.Tech CSE</tspan><tspan x="0" y="60.31">KIIT University</tspan></text><text class="cls-4" transform="translate(567.16 743.86)">Years</text><text class="cls-9" transform="translate(318.58 822.83)">Academics in the making</text></svg>