<?xml version="1.0" encoding="utf-8"?>
<!-- Generator: Adobe Illustrator 21.0.0, SVG Export Plug-In . SVG Version: 6.00 Build 0)  -->
<svg version="1.1" id="Layer_1" xmlns="http://www.w3.org/2000/svg" xmlns:xlink="http://www.w3.org/1999/xlink" x="0px" y="0px"
	 viewBox="0 0 67 67" style="enable-background:new 0 0 67 67;" xml:space="preserve">
<style type="text/css">
	.st0{fill:#333333;}
</style>
<path class="st0" d="M50.8,48.1V36.4c0-6.3-3.3-9.2-7.8-9.2c-3.6,0-5.2,2-6.1,3.4v-2.9h-6.8c0.1,1.9,0,20.4,0,20.4h6.8V36.7
	c0-0.6,0-1.2,0.2-1.7c0.5-1.2,1.6-2.5,3.5-2.5c2.5,0,3.4,1.9,3.4,4.6v10.9L50.8,48.1L50.8,48.1z M23,24.9c2.4,0,3.8-1.6,3.8-3.5
	c0-2-1.5-3.5-3.8-3.5s-3.8,1.5-3.8,3.5C19.2,23.4,20.6,24.9,23,24.9L23,24.9z M34,64C17.4,64,4,50.6,4,34C4,17.4,17.4,4,34,4
	s30,13.4,30,30C64,50.6,50.6,64,34,64z M26.4,48.1V27.7h-6.8v20.4H26.4z"/>
</svg>
